<?xml version="1.0" encoding="UTF-8" standalone="no"?>
<!-- Created with Inkscape (http://www.inkscape.org/) -->

<svg
   width="100mm"
   height="100mm"
   viewBox="0 0 100 100"
   version="1.1"
   id="svg5"
   xml:space="preserve"
   sodipodi:docname="drawing.svg"
   inkscape:version="1.2 (dc2aeda, 2022-05-15)"
   xmlns:inkscape="http://www.inkscape.org/namespaces/inkscape"
   xmlns:sodipodi="http://sodipodi.sourceforge.net/DTD/sodipodi-0.dtd"
   xmlns="http://www.w3.org/2000/svg"
   xmlns:svg="http://www.w3.org/2000/svg"><sodipodi:namedview
     id="namedview7"
     pagecolor="#ffffff"
     bordercolor="#000000"
     borderopacity="0.25"
     inkscape:showpageshadow="2"
     inkscape:pageopacity="0.0"
     inkscape:pagecheckerboard="0"
     inkscape:deskcolor="#d1d1d1"
     inkscape:document-units="mm"
     showgrid="false"
     inkscape:zoom="1.4278812"
     inkscape:cx="153.02394"
     inkscape:cy="212.90287"
     inkscape:window-width="1510"
     inkscape:window-height="852"
     inkscape:window-x="0"
     inkscape:window-y="25"
     inkscape:window-maximized="0"
     inkscape:current-layer="layer2" /><defs
     id="defs2" /><ellipse
     style="display:inline;fill:#0000ff;fill-opacity:0;stroke:#ffffff;stroke-width:0.51;stroke-dasharray:none;stroke-opacity:1"
     id="path354"
     cx="49.670383"
     cy="49.695152"
     rx="47.316742"
     ry="47.933178"
     inkscape:label="path354" /><g
     inkscape:groupmode="layer"
     id="layer2"
     inkscape:label="Layer-2"><path
       style="display:inline;fill:#ffffff;fill-opacity:0.94915301;stroke:#000000;stroke-width:0.51;stroke-dasharray:none;stroke-opacity:0"
       d="M 48.49701,17.817061 31.539229,28.062386 c 0,0 -1.273641,1.01945 -1.155877,1.726022 0.11776,0.706575 0.325384,1.314054 0.325384,1.314054 l -1.902865,1.298463 c 0,0 -0.816071,0.13639 -1.137829,1.941786 -0.434167,2.436129 0.750485,3.140665 0.750485,3.140665 0,0 0.117762,0.529931 0.765456,1.295387 0.647692,0.765452 1.000979,1.11874 1.000979,1.11874 0,0 -3.238465,2.885178 -4.00392,8.47889 -0.765455,5.593712 0.117763,11.422949 0.117763,11.422949 0,0 -1.921235,-4.778197 -2.649653,-8.420008 -0.636421,-3.181858 0.117762,-10.304208 0.117762,-10.304208 0,0 -2.237485,5.770356 -2.414129,12.188404 -0.176643,6.418049 2.265566,10.201704 4.180564,13.895959 2.048343,3.951494 8.302247,8.949939 8.302247,8.949939 0,0 -5.534831,-2.178603 -9.538751,-7.477908 -4.00392,-5.299308 -6.771336,-14.131483 -6.712455,-19.725195 0.05888,-5.593713 2.414129,-14.838059 5.652593,-19.195264 3.238465,-4.357208 7.831197,-8.007842 13.071621,-10.304208 5.240425,-2.296366 12.188406,-1.589792 12.188406,-1.589792 z"
       id="path5979"
       sodipodi:nodetypes="ccsccscscscscsscssssc"
       inkscape:label="zuohua" /><path
       style="display:inline;fill:#ffffff;fill-opacity:0.94915301;stroke:#000000;stroke-width:0.51;stroke-dasharray:none;stroke-opacity:0"
       d="m 52.646493,34.599046 c 0,0 0.66408,1.169817 0.64496,2.909269 -0.01737,1.580433 -1.0416,2.163158 -1.0416,2.163158 0,0 0.76616,-0.150608 2.869952,0.531699 2.103792,0.68231 2.985175,1.901289 2.985175,1.901289 0,0 -0.945234,-1.318449 -0.831516,-2.910505 0.113718,-1.592059 0.364241,-2.35788 0.364241,-2.35788 0,0 -0.605926,0.08179 -2.425421,-0.600515 -1.819494,-0.682311 -2.565791,-1.636518 -2.565791,-1.636518 z"
       id="path6035"
       sodipodi:nodetypes="cscscscscc"
       inkscape:label="xiao-xing" /><path
       id="path6064"
       style="display:inline;fill:#ffffff;fill-opacity:0.94915301;stroke:#000000;stroke-width:0.51;stroke-dasharray:none;stroke-opacity:0"
       d="m 47.99558,28.224724 c 0.813808,1.431546 1.955018,6.00579 1.809192,8.370032 -0.137788,2.233922 -0.768945,4.999178 -0.768945,4.999178 0,0 1.756822,-0.107753 5.191931,0.703316 3.435108,0.811066 7.701339,5.579504 7.701339,5.579504 0,0 -1.847573,-4.714401 -1.513603,-7.815543 0.333968,-3.101138 1.097607,-5.427059 1.097607,-5.427059 0,0 -3.697613,-0.396633 -5.64565,-1.399915 -2.904124,-1.495688 -7.871871,-5.009513 -7.871871,-5.009513 z m 3.069063,4.094841 c 0,0 2.710298,1.78207 4.492233,2.821533 1.781938,1.039462 3.240112,0.81287 3.240112,0.81287 l -0.383439,3.622518 c -0.192433,1.81835 0.447001,4.177006 0.447001,4.177006 0,0 -2.225086,-1.812911 -4.712374,-2.778125 -2.487284,-0.965215 -3.231844,-0.785482 -3.231844,-0.785482 0,0 0.848105,-1.409916 0.768945,-3.125907 -0.07922,-1.717179 -0.242588,-2.994919 -0.620634,-4.744413 z"
       sodipodi:nodetypes="cscscscsccscccscsc" /><path
       style="display:inline;fill:#ffffff;fill-opacity:0.94915301;stroke:#000000;stroke-width:0.51;stroke-dasharray:none;stroke-opacity:0"
       d="m 30.28903,32.30708 c 0,0 -1.157992,1.123778 -1.262064,2.097254 -0.177615,1.661388 0.380585,2.500979 0.380585,2.500979 L 49.85328,62.470372 c 0,0 0.117372,0.555262 2.536796,0.71837 2.419427,0.163107 4.186422,-0.815536 4.186422,-0.815536 0,0 -1.720796,0.403542 -3.6509,-0.901317 -1.930104,-1.304859 -3.090871,-3.040446 -3.090871,-3.040446 L 31.050197,35.460491 c 0,0 -0.294832,-0.92784 -0.353399,-2.147581 -0.0532,-1.107973 0.135922,-1.549519 0.135922,-1.549519 z"
       id="path6069"
       sodipodi:nodetypes="csccscsccscc" /><path
       id="path6134"
       style="display:inline;fill:#ffffff;fill-opacity:0.94915301;stroke:#000000;stroke-width:0.51;stroke-dasharray:none;stroke-opacity:0"
       d="m 51.472887,18.653732 c -1.400363,-0.02395 -1.813326,0.359151 -1.813326,0.359151 L 32.689538,29.239649 c 0,0 -0.759512,0.491358 -0.893486,2.322339 -0.133975,1.830983 0.402043,3.483508 0.402043,3.483508 l 20.721732,25.008293 c 0,0 0.758991,1.116211 2.813265,1.116211 2.054273,0 3.52795,-0.580326 3.52795,-0.580326 L 72.524315,48.442611 c 0,0 0.491276,0.178731 0.312643,-2.36678 -0.178631,-2.545512 -1.384412,-4.287077 -1.384412,-4.287077 L 55.643692,20.442253 c 0,0 -0.714285,-1.384447 -3.036507,-1.697054 -0.435417,-0.05861 -0.811137,-0.08594 -1.134298,-0.09147 z m -7.435722,5.120101 c 0,0 6.832028,5.743556 11.802898,7.700822 5.086081,2.002633 7.408333,2.092895 7.408333,2.092895 0,0 -1.130164,2.762504 -1.130164,7.826913 0,5.064405 1.883606,10.086723 1.883606,10.086723 0,0 -8.07835,-7.407849 -11.761556,-7.826396 -3.683202,-0.418547 -5.985164,0.544153 -5.985164,0.544153 0,0 0.83723,-2.721043 1.758032,-6.236829 0.920799,-3.515787 0.08391,-9.709838 -3.975985,-14.188281 z"
       sodipodi:nodetypes="sccsccsccsccssscscscscsc" /><path
       style="display:inline;fill:#ffffff;fill-opacity:0.94915301;stroke:#000000;stroke-width:0.51;stroke-dasharray:none;stroke-opacity:0"
       d="m 43.476173,78.370359 2.660762,1.27608 c 0,0 0.325805,0.162904 1.248925,0.190052 0.923124,0.02715 2.17205,-1.031721 2.17205,-1.031721 l 14.607032,-7.765076 c 0,0 0.651613,-0.488712 0.895969,-1.791941 0.244356,-1.303229 1.058873,-12.597884 1.058873,-12.597884 l -5.565876,5.050015 -0.271505,3.719634 c 0,0 0.02583,0.755932 -0.814519,2.307801 -0.672032,1.241043 -1.438982,1.656186 -1.438982,1.656186 z"
       id="path6141"
       sodipodi:nodetypes="ccsccscccscc"
       inkscape:label="path6141" /><path
       style="display:inline;fill:#ffffff;fill-opacity:0.94915301;stroke:#000000;stroke-width:0.51;stroke-dasharray:none;stroke-opacity:0"
       d="m 43.775295,57.584721 -3.460331,2.289927 c 0,0 -0.76331,0.407098 -1.017747,1.882828 -0.254436,1.475732 -0.356211,2.340813 -0.356211,2.340813 l -1.83194,9.566804 c 0,0 -0.254437,0.865082 0,1.221293 0.254436,0.356211 0.814197,0.76331 0.814197,0.76331 l 2.997029,1.493107 c 0,0 0.768626,0.186172 1.531935,0.135282 0.76331,-0.05089 1.499488,-0.682104 1.499488,-0.682104 L 56.497108,69.03435 c 0,0 1.11952,-0.55976 1.373954,-2.03549 0.254437,-1.475729 0.712423,-4.172754 0.712423,-4.172754 0,0 -0.559761,1.170406 -1.526617,1.475729 -0.966859,0.305324 -6.920666,0.152662 -6.920666,0.152662 0,0 -0.661536,-0.101774 -0.966857,-0.457985 -0.305324,-0.356212 -5.39405,-6.411794 -5.39405,-6.411794 z"
       id="path6139"
       sodipodi:nodetypes="ccsccsccsccscscscc" /><path
       style="fill:#ffffff;fill-opacity:0.94915301;stroke:#000000;stroke-width:0.51;stroke-dasharray:none;stroke-opacity:0"
       d="m 50.125709,80.039042 c 8.747549,0.936436 17.745605,-4.679011 21.768365,-8.394976 3.042004,-2.810006 8.841262,-9.609092 9.712792,-16.692333 0.425393,-3.457328 0.72396,-12.429569 -0.98432,-16.578249 -1.708279,-4.14868 -4.557214,-9.559266 -9.389204,-13.268673 -4.831993,-3.709407 -9.832987,-5.831725 -9.832987,-5.831725 0,0 3.855834,2.245168 6.979544,5.710535 3.123714,3.465369 8.736632,10.932993 9.029481,17.131606 0.292846,6.198616 -0.292849,9.761601 -1.805898,13.519817 -1.513046,3.758215 -4.587952,7.125967 -4.587952,7.125967 0,0 1.903513,-2.245167 2.635634,-6.784311 0.732118,-4.539144 0.146423,-6.247423 0.146423,-6.247423 0,0 -0.439272,3.562982 -2.538015,6.686695 -2.098744,3.12371 -3.465367,4.197488 -3.465367,4.197488 l -0.244041,8.297359 c 0,0 -0.09761,-0.04881 -1.317817,1.854704 -1.2202,1.90351 -3.483363,3.049762 -3.483363,3.049762 z"
       id="path6145"
       sodipodi:nodetypes="csssscssscscsccscc" /></g></svg>
